<mxfile host="Electron" agent="Mozilla/5.0 (Windows NT 10.0; Win64; x64) AppleWebKit/537.36 (KHTML, like Gecko) draw.io/24.7.8 Chrome/128.0.6613.36 Electron/32.0.1 Safari/537.36" version="24.7.8">
  <diagram name="Item" id="GBWKPSuwXsQC6E5oxjUL">
    <mxGraphModel dx="684" dy="559" grid="1" gridSize="10" guides="1" tooltips="1" connect="1" arrows="1" fold="1" page="1" pageScale="1" pageWidth="827" pageHeight="1169" math="0" shadow="0">
      <root>
        <mxCell id="0" />
        <mxCell id="1" parent="0" />
        <mxCell id="X3S-EdGtiEpr1yEXmVk5-1" value="abstract ItemData" style="swimlane;fontStyle=2;align=center;verticalAlign=top;childLayout=stackLayout;horizontal=1;startSize=26;horizontalStack=0;resizeParent=1;resizeLast=0;collapsible=1;marginBottom=0;rounded=0;shadow=0;strokeWidth=1;" parent="1" vertex="1">
          <mxGeometry x="320" y="40" width="200" height="1004" as="geometry">
            <mxRectangle x="230" y="140" width="160" height="26" as="alternateBounds" />
          </mxGeometry>
        </mxCell>
        <mxCell id="X3S-EdGtiEpr1yEXmVk5-2" value="-string: id" style="text;align=left;verticalAlign=top;spacingLeft=4;spacingRight=4;overflow=hidden;rotatable=0;points=[[0,0.5],[1,0.5]];portConstraint=eastwest;" parent="X3S-EdGtiEpr1yEXmVk5-1" vertex="1">
          <mxGeometry y="26" width="200" height="26" as="geometry" />
        </mxCell>
        <mxCell id="X3S-EdGtiEpr1yEXmVk5-3" value="-string: nom" style="text;align=left;verticalAlign=top;spacingLeft=4;spacingRight=4;overflow=hidden;rotatable=0;points=[[0,0.5],[1,0.5]];portConstraint=eastwest;rounded=0;shadow=0;html=0;" parent="X3S-EdGtiEpr1yEXmVk5-1" vertex="1">
          <mxGeometry y="52" width="200" height="26" as="geometry" />
        </mxCell>
        <mxCell id="X3S-EdGtiEpr1yEXmVk5-4" value="-string: description" style="text;align=left;verticalAlign=top;spacingLeft=4;spacingRight=4;overflow=hidden;rotatable=0;points=[[0,0.5],[1,0.5]];portConstraint=eastwest;rounded=0;shadow=0;html=0;" parent="X3S-EdGtiEpr1yEXmVk5-1" vertex="1">
          <mxGeometry y="78" width="200" height="26" as="geometry" />
        </mxCell>
        <mxCell id="X3S-EdGtiEpr1yEXmVk5-5" value="-int: width" style="text;align=left;verticalAlign=top;spacingLeft=4;spacingRight=4;overflow=hidden;rotatable=0;points=[[0,0.5],[1,0.5]];portConstraint=eastwest;" parent="X3S-EdGtiEpr1yEXmVk5-1" vertex="1">
          <mxGeometry y="104" width="200" height="26" as="geometry" />
        </mxCell>
        <mxCell id="X3S-EdGtiEpr1yEXmVk5-6" value="-int: height" style="text;align=left;verticalAlign=top;spacingLeft=4;spacingRight=4;overflow=hidden;rotatable=0;points=[[0,0.5],[1,0.5]];portConstraint=eastwest;rounded=0;shadow=0;html=0;" parent="X3S-EdGtiEpr1yEXmVk5-1" vertex="1">
          <mxGeometry y="130" width="200" height="26" as="geometry" />
        </mxCell>
        <mxCell id="X3S-EdGtiEpr1yEXmVk5-7" value="-Sprite: imgRef" style="text;align=left;verticalAlign=top;spacingLeft=4;spacingRight=4;overflow=hidden;rotatable=0;points=[[0,0.5],[1,0.5]];portConstraint=eastwest;rounded=0;shadow=0;html=0;" parent="X3S-EdGtiEpr1yEXmVk5-1" vertex="1">
          <mxGeometry y="156" width="200" height="26" as="geometry" />
        </mxCell>
        <mxCell id="X3S-EdGtiEpr1yEXmVk5-8" value="-Sprite[]: listSprite" style="text;align=left;verticalAlign=top;spacingLeft=4;spacingRight=4;overflow=hidden;rotatable=0;points=[[0,0.5],[1,0.5]];portConstraint=eastwest;" parent="X3S-EdGtiEpr1yEXmVk5-1" vertex="1">
          <mxGeometry y="182" width="200" height="26" as="geometry" />
        </mxCell>
        <mxCell id="X3S-EdGtiEpr1yEXmVk5-9" value="-Sprite[,]: patern" style="text;align=left;verticalAlign=top;spacingLeft=4;spacingRight=4;overflow=hidden;rotatable=0;points=[[0,0.5],[1,0.5]];portConstraint=eastwest;rounded=0;shadow=0;html=0;" parent="X3S-EdGtiEpr1yEXmVk5-1" vertex="1">
          <mxGeometry y="208" width="200" height="26" as="geometry" />
        </mxCell>
        <mxCell id="X3S-EdGtiEpr1yEXmVk5-10" value="-float: poids" style="text;align=left;verticalAlign=top;spacingLeft=4;spacingRight=4;overflow=hidden;rotatable=0;points=[[0,0.5],[1,0.5]];portConstraint=eastwest;rounded=0;shadow=0;html=0;" parent="X3S-EdGtiEpr1yEXmVk5-1" vertex="1">
          <mxGeometry y="234" width="200" height="26" as="geometry" />
        </mxCell>
        <mxCell id="X3S-EdGtiEpr1yEXmVk5-11" value="-bool: stackable" style="text;align=left;verticalAlign=top;spacingLeft=4;spacingRight=4;overflow=hidden;rotatable=0;points=[[0,0.5],[1,0.5]];portConstraint=eastwest;rounded=0;shadow=0;html=0;" parent="X3S-EdGtiEpr1yEXmVk5-1" vertex="1">
          <mxGeometry y="260" width="200" height="26" as="geometry" />
        </mxCell>
        <mxCell id="X3S-EdGtiEpr1yEXmVk5-12" value="-int: stackLimit" style="text;align=left;verticalAlign=top;spacingLeft=4;spacingRight=4;overflow=hidden;rotatable=0;points=[[0,0.5],[1,0.5]];portConstraint=eastwest;" parent="X3S-EdGtiEpr1yEXmVk5-1" vertex="1">
          <mxGeometry y="286" width="200" height="26" as="geometry" />
        </mxCell>
        <mxCell id="X3S-EdGtiEpr1yEXmVk5-13" value="-int: stack" style="text;align=left;verticalAlign=top;spacingLeft=4;spacingRight=4;overflow=hidden;rotatable=0;points=[[0,0.5],[1,0.5]];portConstraint=eastwest;rounded=0;shadow=0;html=0;" parent="X3S-EdGtiEpr1yEXmVk5-1" vertex="1">
          <mxGeometry y="312" width="200" height="26" as="geometry" />
        </mxCell>
        <mxCell id="X3S-EdGtiEpr1yEXmVk5-14" value="-int: refX" style="text;align=left;verticalAlign=top;spacingLeft=4;spacingRight=4;overflow=hidden;rotatable=0;points=[[0,0.5],[1,0.5]];portConstraint=eastwest;" parent="X3S-EdGtiEpr1yEXmVk5-1" vertex="1">
          <mxGeometry y="338" width="200" height="26" as="geometry" />
        </mxCell>
        <mxCell id="X3S-EdGtiEpr1yEXmVk5-15" value="-int: refY" style="text;align=left;verticalAlign=top;spacingLeft=4;spacingRight=4;overflow=hidden;rotatable=0;points=[[0,0.5],[1,0.5]];portConstraint=eastwest;rounded=0;shadow=0;html=0;" parent="X3S-EdGtiEpr1yEXmVk5-1" vertex="1">
          <mxGeometry y="364" width="200" height="26" as="geometry" />
        </mxCell>
        <mxCell id="X3S-EdGtiEpr1yEXmVk5-16" value="-int: rotate" style="text;align=left;verticalAlign=top;spacingLeft=4;spacingRight=4;overflow=hidden;rotatable=0;points=[[0,0.5],[1,0.5]];portConstraint=eastwest;rounded=0;shadow=0;html=0;" parent="X3S-EdGtiEpr1yEXmVk5-1" vertex="1">
          <mxGeometry y="390" width="200" height="26" as="geometry" />
        </mxCell>
        <mxCell id="TtzhslhZzN5wgRtnBgMi-1" value="-Restrict[]: restriction" style="text;align=left;verticalAlign=top;spacingLeft=4;spacingRight=4;overflow=hidden;rotatable=0;points=[[0,0.5],[1,0.5]];portConstraint=eastwest;rounded=0;shadow=0;html=0;" vertex="1" parent="X3S-EdGtiEpr1yEXmVk5-1">
          <mxGeometry y="416" width="200" height="26" as="geometry" />
        </mxCell>
        <mxCell id="X3S-EdGtiEpr1yEXmVk5-17" value="-GameObject: prefab" style="text;align=left;verticalAlign=top;spacingLeft=4;spacingRight=4;overflow=hidden;rotatable=0;points=[[0,0.5],[1,0.5]];portConstraint=eastwest;rounded=0;shadow=0;html=0;" parent="X3S-EdGtiEpr1yEXmVk5-1" vertex="1">
          <mxGeometry y="442" width="200" height="26" as="geometry" />
        </mxCell>
        <mxCell id="X3S-EdGtiEpr1yEXmVk5-18" value="" style="line;html=1;strokeWidth=1;align=left;verticalAlign=middle;spacingTop=-1;spacingLeft=3;spacingRight=3;rotatable=0;labelPosition=right;points=[];portConstraint=eastwest;" parent="X3S-EdGtiEpr1yEXmVk5-1" vertex="1">
          <mxGeometry y="468" width="200" height="8" as="geometry" />
        </mxCell>
        <mxCell id="X3S-EdGtiEpr1yEXmVk5-19" value="+ Id: string {get}" style="text;align=left;verticalAlign=top;spacingLeft=4;spacingRight=4;overflow=hidden;rotatable=0;points=[[0,0.5],[1,0.5]];portConstraint=eastwest;" parent="X3S-EdGtiEpr1yEXmVk5-1" vertex="1">
          <mxGeometry y="476" width="200" height="26" as="geometry" />
        </mxCell>
        <mxCell id="X3S-EdGtiEpr1yEXmVk5-20" value="+ Nom : string {get}" style="text;align=left;verticalAlign=top;spacingLeft=4;spacingRight=4;overflow=hidden;rotatable=0;points=[[0,0.5],[1,0.5]];portConstraint=eastwest;rounded=0;shadow=0;html=0;" parent="X3S-EdGtiEpr1yEXmVk5-1" vertex="1">
          <mxGeometry y="502" width="200" height="26" as="geometry" />
        </mxCell>
        <mxCell id="X3S-EdGtiEpr1yEXmVk5-21" value="+ Description: string {get}" style="text;align=left;verticalAlign=top;spacingLeft=4;spacingRight=4;overflow=hidden;rotatable=0;points=[[0,0.5],[1,0.5]];portConstraint=eastwest;rounded=0;shadow=0;html=0;" parent="X3S-EdGtiEpr1yEXmVk5-1" vertex="1">
          <mxGeometry y="528" width="200" height="26" as="geometry" />
        </mxCell>
        <mxCell id="X3S-EdGtiEpr1yEXmVk5-22" value="+ Width: int {get}" style="text;align=left;verticalAlign=top;spacingLeft=4;spacingRight=4;overflow=hidden;rotatable=0;points=[[0,0.5],[1,0.5]];portConstraint=eastwest;" parent="X3S-EdGtiEpr1yEXmVk5-1" vertex="1">
          <mxGeometry y="554" width="200" height="26" as="geometry" />
        </mxCell>
        <mxCell id="X3S-EdGtiEpr1yEXmVk5-23" value="+ Height: int {get}" style="text;align=left;verticalAlign=top;spacingLeft=4;spacingRight=4;overflow=hidden;rotatable=0;points=[[0,0.5],[1,0.5]];portConstraint=eastwest;rounded=0;shadow=0;html=0;" parent="X3S-EdGtiEpr1yEXmVk5-1" vertex="1">
          <mxGeometry y="580" width="200" height="26" as="geometry" />
        </mxCell>
        <mxCell id="X3S-EdGtiEpr1yEXmVk5-24" value="+ ImgRef: Sprite {get}" style="text;align=left;verticalAlign=top;spacingLeft=4;spacingRight=4;overflow=hidden;rotatable=0;points=[[0,0.5],[1,0.5]];portConstraint=eastwest;rounded=0;shadow=0;html=0;" parent="X3S-EdGtiEpr1yEXmVk5-1" vertex="1">
          <mxGeometry y="606" width="200" height="26" as="geometry" />
        </mxCell>
        <mxCell id="X3S-EdGtiEpr1yEXmVk5-25" value="+ ListSprite: Sprite[] {get}" style="text;align=left;verticalAlign=top;spacingLeft=4;spacingRight=4;overflow=hidden;rotatable=0;points=[[0,0.5],[1,0.5]];portConstraint=eastwest;" parent="X3S-EdGtiEpr1yEXmVk5-1" vertex="1">
          <mxGeometry y="632" width="200" height="26" as="geometry" />
        </mxCell>
        <mxCell id="X3S-EdGtiEpr1yEXmVk5-26" value="+ Patern: Sprite[,] {get set}" style="text;align=left;verticalAlign=top;spacingLeft=4;spacingRight=4;overflow=hidden;rotatable=0;points=[[0,0.5],[1,0.5]];portConstraint=eastwest;rounded=0;shadow=0;html=0;" parent="X3S-EdGtiEpr1yEXmVk5-1" vertex="1">
          <mxGeometry y="658" width="200" height="26" as="geometry" />
        </mxCell>
        <mxCell id="X3S-EdGtiEpr1yEXmVk5-27" value="+ Poids: float {get}" style="text;align=left;verticalAlign=top;spacingLeft=4;spacingRight=4;overflow=hidden;rotatable=0;points=[[0,0.5],[1,0.5]];portConstraint=eastwest;rounded=0;shadow=0;html=0;" parent="X3S-EdGtiEpr1yEXmVk5-1" vertex="1">
          <mxGeometry y="684" width="200" height="26" as="geometry" />
        </mxCell>
        <mxCell id="X3S-EdGtiEpr1yEXmVk5-28" value="+ Stackable: bool {get}" style="text;align=left;verticalAlign=top;spacingLeft=4;spacingRight=4;overflow=hidden;rotatable=0;points=[[0,0.5],[1,0.5]];portConstraint=eastwest;rounded=0;shadow=0;html=0;" parent="X3S-EdGtiEpr1yEXmVk5-1" vertex="1">
          <mxGeometry y="710" width="200" height="26" as="geometry" />
        </mxCell>
        <mxCell id="X3S-EdGtiEpr1yEXmVk5-29" value="+ StackLimit: int {get}" style="text;align=left;verticalAlign=top;spacingLeft=4;spacingRight=4;overflow=hidden;rotatable=0;points=[[0,0.5],[1,0.5]];portConstraint=eastwest;" parent="X3S-EdGtiEpr1yEXmVk5-1" vertex="1">
          <mxGeometry y="736" width="200" height="26" as="geometry" />
        </mxCell>
        <mxCell id="X3S-EdGtiEpr1yEXmVk5-30" value="+ Stack: int {get set} " style="text;align=left;verticalAlign=top;spacingLeft=4;spacingRight=4;overflow=hidden;rotatable=0;points=[[0,0.5],[1,0.5]];portConstraint=eastwest;rounded=0;shadow=0;html=0;" parent="X3S-EdGtiEpr1yEXmVk5-1" vertex="1">
          <mxGeometry y="762" width="200" height="26" as="geometry" />
        </mxCell>
        <mxCell id="X3S-EdGtiEpr1yEXmVk5-31" value="+ RefX: int {get set} " style="text;align=left;verticalAlign=top;spacingLeft=4;spacingRight=4;overflow=hidden;rotatable=0;points=[[0,0.5],[1,0.5]];portConstraint=eastwest;" parent="X3S-EdGtiEpr1yEXmVk5-1" vertex="1">
          <mxGeometry y="788" width="200" height="26" as="geometry" />
        </mxCell>
        <mxCell id="X3S-EdGtiEpr1yEXmVk5-32" value="+ RefY: int {get set}" style="text;align=left;verticalAlign=top;spacingLeft=4;spacingRight=4;overflow=hidden;rotatable=0;points=[[0,0.5],[1,0.5]];portConstraint=eastwest;rounded=0;shadow=0;html=0;" parent="X3S-EdGtiEpr1yEXmVk5-1" vertex="1">
          <mxGeometry y="814" width="200" height="26" as="geometry" />
        </mxCell>
        <mxCell id="X3S-EdGtiEpr1yEXmVk5-33" value="+ Rotate: int {get set}" style="text;align=left;verticalAlign=top;spacingLeft=4;spacingRight=4;overflow=hidden;rotatable=0;points=[[0,0.5],[1,0.5]];portConstraint=eastwest;rounded=0;shadow=0;html=0;" parent="X3S-EdGtiEpr1yEXmVk5-1" vertex="1">
          <mxGeometry y="840" width="200" height="26" as="geometry" />
        </mxCell>
        <mxCell id="TtzhslhZzN5wgRtnBgMi-2" value="+ Restrict: Restrict[]{get}" style="text;align=left;verticalAlign=top;spacingLeft=4;spacingRight=4;overflow=hidden;rotatable=0;points=[[0,0.5],[1,0.5]];portConstraint=eastwest;rounded=0;shadow=0;html=0;" vertex="1" parent="X3S-EdGtiEpr1yEXmVk5-1">
          <mxGeometry y="866" width="200" height="26" as="geometry" />
        </mxCell>
        <mxCell id="X3S-EdGtiEpr1yEXmVk5-34" value="+ Prefab: GameObject {get}" style="text;align=left;verticalAlign=top;spacingLeft=4;spacingRight=4;overflow=hidden;rotatable=0;points=[[0,0.5],[1,0.5]];portConstraint=eastwest;rounded=0;shadow=0;html=0;" parent="X3S-EdGtiEpr1yEXmVk5-1" vertex="1">
          <mxGeometry y="892" width="200" height="26" as="geometry" />
        </mxCell>
        <mxCell id="X3S-EdGtiEpr1yEXmVk5-35" value="" style="line;html=1;strokeWidth=1;align=left;verticalAlign=middle;spacingTop=-1;spacingLeft=3;spacingRight=3;rotatable=0;labelPosition=right;points=[];portConstraint=eastwest;" parent="X3S-EdGtiEpr1yEXmVk5-1" vertex="1">
          <mxGeometry y="918" width="200" height="8" as="geometry" />
        </mxCell>
        <mxCell id="X3S-EdGtiEpr1yEXmVk5-36" value="+ Init()" style="text;align=left;verticalAlign=top;spacingLeft=4;spacingRight=4;overflow=hidden;rotatable=0;points=[[0,0.5],[1,0.5]];portConstraint=eastwest;rounded=0;shadow=0;html=0;" parent="X3S-EdGtiEpr1yEXmVk5-1" vertex="1">
          <mxGeometry y="926" width="200" height="26" as="geometry" />
        </mxCell>
        <mxCell id="X3S-EdGtiEpr1yEXmVk5-37" value="+ InitPatern()" style="text;align=left;verticalAlign=top;spacingLeft=4;spacingRight=4;overflow=hidden;rotatable=0;points=[[0,0.5],[1,0.5]];portConstraint=eastwest;rounded=0;shadow=0;html=0;" parent="X3S-EdGtiEpr1yEXmVk5-1" vertex="1">
          <mxGeometry y="952" width="200" height="26" as="geometry" />
        </mxCell>
        <mxCell id="X3S-EdGtiEpr1yEXmVk5-38" value="+ RotatePatern(): Sprite[,]" style="text;align=left;verticalAlign=top;spacingLeft=4;spacingRight=4;overflow=hidden;rotatable=0;points=[[0,0.5],[1,0.5]];portConstraint=eastwest;rounded=0;shadow=0;html=0;" parent="X3S-EdGtiEpr1yEXmVk5-1" vertex="1">
          <mxGeometry y="978" width="200" height="26" as="geometry" />
        </mxCell>
        <mxCell id="X3S-EdGtiEpr1yEXmVk5-39" value="Ressource" style="swimlane;fontStyle=0;align=center;verticalAlign=top;childLayout=stackLayout;horizontal=1;startSize=26;horizontalStack=0;resizeParent=1;resizeLast=0;collapsible=1;marginBottom=0;rounded=0;shadow=0;strokeWidth=1;" parent="1" vertex="1">
          <mxGeometry x="40" y="1200" width="160" height="70" as="geometry">
            <mxRectangle x="130" y="380" width="160" height="26" as="alternateBounds" />
          </mxGeometry>
        </mxCell>
        <mxCell id="X3S-EdGtiEpr1yEXmVk5-40" value="" style="line;html=1;strokeWidth=1;align=left;verticalAlign=middle;spacingTop=-1;spacingLeft=3;spacingRight=3;rotatable=0;labelPosition=right;points=[];portConstraint=eastwest;" parent="X3S-EdGtiEpr1yEXmVk5-39" vertex="1">
          <mxGeometry y="26" width="160" height="8" as="geometry" />
        </mxCell>
        <mxCell id="X3S-EdGtiEpr1yEXmVk5-41" value="" style="endArrow=block;endSize=10;endFill=0;shadow=0;strokeWidth=1;rounded=0;curved=0;edgeStyle=elbowEdgeStyle;elbow=vertical;" parent="1" source="X3S-EdGtiEpr1yEXmVk5-39" target="X3S-EdGtiEpr1yEXmVk5-1" edge="1">
          <mxGeometry width="160" relative="1" as="geometry">
            <mxPoint x="200" y="203" as="sourcePoint" />
            <mxPoint x="200" y="203" as="targetPoint" />
          </mxGeometry>
        </mxCell>
        <mxCell id="X3S-EdGtiEpr1yEXmVk5-42" value="Consomable" style="swimlane;fontStyle=0;align=center;verticalAlign=top;childLayout=stackLayout;horizontal=1;startSize=26;horizontalStack=0;resizeParent=1;resizeLast=0;collapsible=1;marginBottom=0;rounded=0;shadow=0;strokeWidth=1;" parent="1" vertex="1">
          <mxGeometry x="240" y="1200" width="160" height="70" as="geometry">
            <mxRectangle x="340" y="380" width="170" height="26" as="alternateBounds" />
          </mxGeometry>
        </mxCell>
        <mxCell id="X3S-EdGtiEpr1yEXmVk5-43" value="" style="line;html=1;strokeWidth=1;align=left;verticalAlign=middle;spacingTop=-1;spacingLeft=3;spacingRight=3;rotatable=0;labelPosition=right;points=[];portConstraint=eastwest;" parent="X3S-EdGtiEpr1yEXmVk5-42" vertex="1">
          <mxGeometry y="26" width="160" height="8" as="geometry" />
        </mxCell>
        <mxCell id="X3S-EdGtiEpr1yEXmVk5-44" value="" style="endArrow=block;endSize=10;endFill=0;shadow=0;strokeWidth=1;rounded=0;curved=0;edgeStyle=elbowEdgeStyle;elbow=vertical;" parent="1" source="X3S-EdGtiEpr1yEXmVk5-42" target="X3S-EdGtiEpr1yEXmVk5-1" edge="1">
          <mxGeometry width="160" relative="1" as="geometry">
            <mxPoint x="210" y="373" as="sourcePoint" />
            <mxPoint x="310" y="271" as="targetPoint" />
          </mxGeometry>
        </mxCell>
        <mxCell id="X3S-EdGtiEpr1yEXmVk5-45" value="Tool" style="swimlane;fontStyle=0;align=center;verticalAlign=top;childLayout=stackLayout;horizontal=1;startSize=26;horizontalStack=0;resizeParent=1;resizeLast=0;collapsible=1;marginBottom=0;rounded=0;shadow=0;strokeWidth=1;" parent="1" vertex="1">
          <mxGeometry x="440" y="1200" width="160" height="86" as="geometry">
            <mxRectangle x="340" y="380" width="170" height="26" as="alternateBounds" />
          </mxGeometry>
        </mxCell>
        <mxCell id="MHhm4jmeREKtw2-JIbRM-2" value="-int: maxDurabiliter" style="text;align=left;verticalAlign=top;spacingLeft=4;spacingRight=4;overflow=hidden;rotatable=0;points=[[0,0.5],[1,0.5]];portConstraint=eastwest;rounded=0;shadow=0;html=0;" parent="X3S-EdGtiEpr1yEXmVk5-45" vertex="1">
          <mxGeometry y="26" width="160" height="26" as="geometry" />
        </mxCell>
        <mxCell id="MHhm4jmeREKtw2-JIbRM-1" value="-int: Durabiliter" style="text;align=left;verticalAlign=top;spacingLeft=4;spacingRight=4;overflow=hidden;rotatable=0;points=[[0,0.5],[1,0.5]];portConstraint=eastwest;rounded=0;shadow=0;html=0;" parent="X3S-EdGtiEpr1yEXmVk5-45" vertex="1">
          <mxGeometry y="52" width="160" height="26" as="geometry" />
        </mxCell>
        <mxCell id="X3S-EdGtiEpr1yEXmVk5-46" value="" style="line;html=1;strokeWidth=1;align=left;verticalAlign=middle;spacingTop=-1;spacingLeft=3;spacingRight=3;rotatable=0;labelPosition=right;points=[];portConstraint=eastwest;" parent="X3S-EdGtiEpr1yEXmVk5-45" vertex="1">
          <mxGeometry y="78" width="160" height="8" as="geometry" />
        </mxCell>
        <mxCell id="X3S-EdGtiEpr1yEXmVk5-47" value="" style="endArrow=block;endSize=10;endFill=0;shadow=0;strokeWidth=1;rounded=0;curved=0;edgeStyle=elbowEdgeStyle;elbow=vertical;" parent="1" source="X3S-EdGtiEpr1yEXmVk5-45" target="X3S-EdGtiEpr1yEXmVk5-1" edge="1">
          <mxGeometry width="160" relative="1" as="geometry">
            <mxPoint x="560" y="464" as="sourcePoint" />
            <mxPoint x="550" y="398" as="targetPoint" />
          </mxGeometry>
        </mxCell>
        <mxCell id="X3S-EdGtiEpr1yEXmVk5-48" value="Weapon" style="swimlane;fontStyle=0;align=center;verticalAlign=top;childLayout=stackLayout;horizontal=1;startSize=26;horizontalStack=0;resizeParent=1;resizeLast=0;collapsible=1;marginBottom=0;rounded=0;shadow=0;strokeWidth=1;" parent="1" vertex="1">
          <mxGeometry x="440" y="1320" width="160" height="86" as="geometry">
            <mxRectangle x="340" y="380" width="170" height="26" as="alternateBounds" />
          </mxGeometry>
        </mxCell>
        <mxCell id="MHhm4jmeREKtw2-JIbRM-3" value="+int: munition" style="text;align=left;verticalAlign=top;spacingLeft=4;spacingRight=4;overflow=hidden;rotatable=0;points=[[0,0.5],[1,0.5]];portConstraint=eastwest;rounded=0;shadow=0;html=0;" parent="X3S-EdGtiEpr1yEXmVk5-48" vertex="1">
          <mxGeometry y="26" width="160" height="26" as="geometry" />
        </mxCell>
        <mxCell id="X3S-EdGtiEpr1yEXmVk5-49" value="+int: maxMunition" style="text;align=left;verticalAlign=top;spacingLeft=4;spacingRight=4;overflow=hidden;rotatable=0;points=[[0,0.5],[1,0.5]];portConstraint=eastwest;rounded=0;shadow=0;html=0;" parent="X3S-EdGtiEpr1yEXmVk5-48" vertex="1">
          <mxGeometry y="52" width="160" height="26" as="geometry" />
        </mxCell>
        <mxCell id="X3S-EdGtiEpr1yEXmVk5-50" value="" style="line;html=1;strokeWidth=1;align=left;verticalAlign=middle;spacingTop=-1;spacingLeft=3;spacingRight=3;rotatable=0;labelPosition=right;points=[];portConstraint=eastwest;" parent="X3S-EdGtiEpr1yEXmVk5-48" vertex="1">
          <mxGeometry y="78" width="160" height="8" as="geometry" />
        </mxCell>
        <mxCell id="X3S-EdGtiEpr1yEXmVk5-51" value="Structure" style="swimlane;fontStyle=0;align=center;verticalAlign=top;childLayout=stackLayout;horizontal=1;startSize=26;horizontalStack=0;resizeParent=1;resizeLast=0;collapsible=1;marginBottom=0;rounded=0;shadow=0;strokeWidth=1;" parent="1" vertex="1">
          <mxGeometry x="640" y="1200" width="160" height="70" as="geometry">
            <mxRectangle x="340" y="380" width="170" height="26" as="alternateBounds" />
          </mxGeometry>
        </mxCell>
        <mxCell id="X3S-EdGtiEpr1yEXmVk5-52" value="" style="line;html=1;strokeWidth=1;align=left;verticalAlign=middle;spacingTop=-1;spacingLeft=3;spacingRight=3;rotatable=0;labelPosition=right;points=[];portConstraint=eastwest;" parent="X3S-EdGtiEpr1yEXmVk5-51" vertex="1">
          <mxGeometry y="26" width="160" height="8" as="geometry" />
        </mxCell>
        <mxCell id="X3S-EdGtiEpr1yEXmVk5-53" value="" style="endArrow=block;endSize=10;endFill=0;shadow=0;strokeWidth=1;rounded=0;curved=0;edgeStyle=elbowEdgeStyle;elbow=vertical;" parent="1" source="X3S-EdGtiEpr1yEXmVk5-51" target="X3S-EdGtiEpr1yEXmVk5-1" edge="1">
          <mxGeometry width="160" relative="1" as="geometry">
            <mxPoint x="660" y="1178" as="sourcePoint" />
            <mxPoint x="560" y="970" as="targetPoint" />
          </mxGeometry>
        </mxCell>
        <mxCell id="X3S-EdGtiEpr1yEXmVk5-54" value="" style="endArrow=block;endSize=10;endFill=0;shadow=0;strokeWidth=1;rounded=0;curved=0;edgeStyle=elbowEdgeStyle;elbow=vertical;" parent="1" source="X3S-EdGtiEpr1yEXmVk5-48" target="X3S-EdGtiEpr1yEXmVk5-45" edge="1">
          <mxGeometry width="160" relative="1" as="geometry">
            <mxPoint x="240" y="1558" as="sourcePoint" />
            <mxPoint x="340" y="1350" as="targetPoint" />
          </mxGeometry>
        </mxCell>
        <mxCell id="TtzhslhZzN5wgRtnBgMi-3" value="enum Restrict" style="swimlane;fontStyle=1;align=center;verticalAlign=top;childLayout=stackLayout;horizontal=1;startSize=26;horizontalStack=0;resizeParent=1;resizeParentMax=0;resizeLast=0;collapsible=1;marginBottom=0;whiteSpace=wrap;html=1;" vertex="1" parent="1">
          <mxGeometry x="90" y="902" width="160" height="34" as="geometry" />
        </mxCell>
        <mxCell id="TtzhslhZzN5wgRtnBgMi-9" style="edgeStyle=orthogonalEdgeStyle;rounded=0;orthogonalLoop=1;jettySize=auto;html=1;exitX=0;exitY=0.5;exitDx=0;exitDy=0;" edge="1" parent="1" source="TtzhslhZzN5wgRtnBgMi-2" target="TtzhslhZzN5wgRtnBgMi-3">
          <mxGeometry relative="1" as="geometry" />
        </mxCell>
      </root>
    </mxGraphModel>
  </diagram>
</mxfile>
